<?xml version="1.0" encoding="UTF-8" standalone="no"?>
<!-- Created with Inkscape (http://www.inkscape.org/) -->

<svg
   version="1.1"
   id="svg1"
   width="558.77679"
   height="63.393551"
   viewBox="0 0 558.77679 63.393551"
   sodipodi:docname="neodymium-logo.svg"
   inkscape:version="1.4.2 (2aeb623e1d, 2025-05-12)"
   xmlns:inkscape="http://www.inkscape.org/namespaces/inkscape"
   xmlns:sodipodi="http://sodipodi.sourceforge.net/DTD/sodipodi-0.dtd"
   xmlns="http://www.w3.org/2000/svg"
   xmlns:svg="http://www.w3.org/2000/svg">
  <defs
     id="defs1" />
  <sodipodi:namedview
     id="namedview1"
     pagecolor="#000000"
     bordercolor="#666666"
     borderopacity="1.0"
     inkscape:showpageshadow="2"
     inkscape:pageopacity="0.0"
     inkscape:pagecheckerboard="true"
     inkscape:deskcolor="#d1d1d1"
     inkscape:zoom="2.6385281"
     inkscape:cx="278.3749"
     inkscape:cy="18.38146"
     inkscape:window-width="2560"
     inkscape:window-height="1379"
     inkscape:window-x="1920"
     inkscape:window-y="24"
     inkscape:window-maximized="1"
     inkscape:current-layer="g4"
     showgrid="false" />
  <g
     inkscape:groupmode="layer"
     inkscape:label="Image"
     id="g1"
     transform="translate(-184,-70.999998)">
    <g
       id="g4"
       transform="matrix(3.7795276,0,0,3.7795276,181.40523,-170.30425)">
      <path
         inkscape:connector-curvature="0"
         id="path102389-4"
         style="fill:#ed1c24;fill-opacity:1;fill-rule:nonzero;stroke:none;stroke-width:0.0239275"
         d="M 0.68653332,64.146421 H 7.3260344 L 12.500757,76.880669 H 12.82194 V 64.146421 h 4.057872 V 80.239012 H 10.414868 L 5.0643912,67.505389 H 4.7415386 V 80.239012 H 0.68653332 V 64.146421" />
      <path
         style="font-weight:bold;font-size:24.7894px;line-height:125%;font-family:'Titillium Web';-inkscape-font-specification:'Titillium Web, Bold';text-align:center;letter-spacing:0px;word-spacing:0px;text-anchor:middle;fill:#4f4c4c;stroke:#4f4c4c;stroke-width:0.290499px"
         d="M 19.24456,84.90799 V 68.051197 h 10.907336 v 2.974728 h -7.486399 v 3.941515 h 5.999035 v 2.925149 h -5.999035 v 4.040672 h 7.486399 v 2.974729 z m 17.079858,-3.966305 q 0.743682,1.289049 2.751624,1.289049 2.007941,0 2.726834,-1.289049 0.743682,-1.313838 0.743682,-4.362934 0,-3.073886 -0.743682,-4.462092 -0.743682,-1.388206 -2.726834,-1.388206 -1.983152,0 -2.726834,1.388206 -0.743682,1.388206 -0.743682,4.462092 0,3.049096 0.718892,4.362934 z m 8.155713,2.181468 q -1.561732,2.082309 -5.404089,2.082309 -3.842357,0 -5.428879,-2.082309 -1.561732,-2.107099 -1.561732,-6.569191 0,-4.462092 1.561732,-6.61877 1.586522,-2.181467 5.428879,-2.181467 3.842357,0 5.404089,2.181467 1.586521,2.156678 1.586521,6.61877 0,4.462092 -1.586521,6.569191 z M 54.668538,84.90799 H 48.991766 V 68.051197 h 5.676772 q 2.181467,0 3.594463,0.470999 1.412996,0.446209 2.181468,1.512153 0.79326,1.041155 1.090733,2.47894 0.297473,1.412996 0.297473,3.693621 0,2.280625 -0.272683,3.792778 -0.272684,1.487364 -1.041155,2.677255 -0.743682,1.165102 -2.181468,1.710469 -1.437785,0.520578 -3.668831,0.520578 z m 3.594463,-6.693139 q 0.04958,-0.79326 0.04958,-2.181467 0,-1.412996 -0.09916,-2.255835 -0.09916,-0.84284 -0.470998,-1.536943 -0.371841,-0.694103 -1.115523,-0.941997 -0.718893,-0.272684 -1.958363,-0.272684 h -2.255835 v 10.907336 h 2.255835 q 1.859205,0 2.702045,-0.941997 0.718892,-0.768471 0.892418,-2.776413 z M 70.955114,84.90799 H 67.534177 V 78.090904 L 62.328403,68.051197 h 3.792778 l 3.098675,6.717928 3.098675,-6.717928 h 3.792778 l -5.156195,10.039707 z m 7.015383,0 V 68.051197 h 5.825509 l 2.974728,12.295543 2.974728,-12.295543 h 5.825509 V 84.90799 H 92.150034 V 71.868765 H 91.778193 L 88.481202,84.164307 H 85.060265 L 81.763275,71.868765 H 81.391434 V 84.90799 Z m 21.269302,0 V 68.051197 h 3.420941 V 84.90799 Z m 10.361951,-5.627194 q 0,2.949938 2.99952,2.949938 2.99952,0 2.99952,-2.949938 V 68.051197 h 3.42093 v 11.15523 q 0,3.098675 -1.61131,4.56125 -1.58652,1.437785 -4.80914,1.437785 -3.22262,0 -4.83393,-1.437785 -1.58653,-1.462575 -1.58653,-4.56125 v -11.15523 h 3.42094 z M 122.5418,84.90799 V 68.051197 h 5.82551 l 2.97473,12.295543 2.97473,-12.295543 h 5.82551 V 84.90799 h -3.42094 V 71.868765 h -0.37184 l -3.29699,12.295542 h -3.42094 l -3.29699,-12.295542 h -0.37184 V 84.90799 Z"
         id="text1-8"
         transform="scale(1.0588119,0.94445481)"
         aria-label="EODYMIUM" />
    </g>
  </g>
</svg>
