<?xml version="1.0" encoding="UTF-8" standalone="no"?>
<!-- Generator: Adobe Illustrator 15.0.2, SVG Export Plug-In . SVG Version: 6.00 Build 0)  -->

<svg
   version="1.1"
   id="Layer_1"
   x="0px"
   y="0px"
   width="29.852465mm"
   height="8.4666662mm"
   viewBox="0 0 112.82823 32.000001"
   enable-background="new 0 0 707 178"
   xml:space="preserve"
   sodipodi:docname="XTC-logo-light.svg"
   inkscape:version="1.4.1-rc (d9e8dc1fe0, 2025-03-10)"
   inkscape:export-filename="/home/rschwietzke/projects/xceptance/design-and-marketing/corporate-design/CICD/current-design/XTC-rgb.png"
   inkscape:export-xdpi="229.55"
   inkscape:export-ydpi="229.55"
   xmlns:inkscape="http://www.inkscape.org/namespaces/inkscape"
   xmlns:sodipodi="http://sodipodi.sourceforge.net/DTD/sodipodi-0.dtd"
   xmlns="http://www.w3.org/2000/svg"
   xmlns:svg="http://www.w3.org/2000/svg"
   xmlns:rdf="http://www.w3.org/1999/02/22-rdf-syntax-ns#"
   xmlns:cc="http://creativecommons.org/ns#"
   xmlns:dc="http://purl.org/dc/elements/1.1/"><metadata
   id="metadata838"><rdf:RDF><cc:Work
       rdf:about=""><dc:format>image/svg+xml</dc:format><dc:type
         rdf:resource="http://purl.org/dc/dcmitype/StillImage" /></cc:Work></rdf:RDF></metadata><defs
   id="defs836">
	
	
	

		
		
	</defs><sodipodi:namedview
   pagecolor="#ffffff"
   bordercolor="#666666"
   borderopacity="1"
   objecttolerance="10"
   gridtolerance="10"
   guidetolerance="10"
   inkscape:pageopacity="0"
   inkscape:pageshadow="2"
   inkscape:window-width="1870"
   inkscape:window-height="1011"
   id="namedview834"
   showgrid="false"
   fit-margin-top="0"
   fit-margin-left="0"
   fit-margin-right="0"
   fit-margin-bottom="0"
   inkscape:zoom="3.3215975"
   inkscape:cx="161.21761"
   inkscape:cy="113.19854"
   inkscape:window-x="0"
   inkscape:window-y="0"
   inkscape:window-maximized="1"
   inkscape:current-layer="Layer_1"
   inkscape:pagecheckerboard="true"
   units="mm"
   inkscape:document-units="mm"
   inkscape:showpageshadow="false"
   inkscape:deskcolor="#f3f2fd"
   showborder="true"><inkscape:grid
     type="xygrid"
     id="grid40105"
     originx="-432.5354"
     originy="-48.500908"
     spacingy="1"
     spacingx="1"
     units="mm" /></sodipodi:namedview>

<g
   id="g45660"
   style="fill:#dddddd;fill-opacity:1;stroke:#dddddd;stroke-opacity:1"
   transform="matrix(0.47282209,0,0,0.47282209,0.57073337,0.23218473)"><path
     d="m 95.90234,0.003259 h 71.22286 v 16.982359 h -25.64164 v 47.5871 h -19.6538 v -47.5871 H 95.90234 Z"
     id="path8"
     inkscape:connector-curvature="0"
     style="fill:#dddddd;fill-opacity:1;stroke:#dddddd;stroke-width:0.988641;stroke-opacity:1" /><g
     id="g16"
     transform="translate(-239.652,-42.620282)"
     style="fill:#dddddd;fill-opacity:1;stroke:#dddddd;stroke-opacity:1">
		<polygon
   points="239.652,42.7 269.807,72.856 283.865,58.797 267.768,42.7 "
   id="polygon12"
   style="fill:#dddddd;fill-opacity:1;stroke:#dddddd;stroke-opacity:1" />
		<path
   d="m 332.34,42.7 c 0,0 -4.894,0 -16.093,0 -7.977,0 -15.598,3.574 -22.014,9.99 -4.621,4.621 -54.508,54.503 -54.508,54.503 h 28.117 l 18.152,-18.15 18.149,18.15 h 28.115 L 300.051,74.985 Z"
   id="path14"
   inkscape:connector-curvature="0"
   style="fill:#dddddd;fill-opacity:1;stroke:#dddddd;stroke-opacity:1" />
	</g><g
     aria-label="c"
     transform="matrix(1.1590155,0,0,0.8416423,-34.109878,-11.483512)"
     id="text30952"
     style="font-size:140.517px;line-height:125%;font-family:TitilliumMaps26L;-inkscape-font-specification:TitilliumMaps26L;letter-spacing:0px;word-spacing:0px;fill:#dddddd;fill-opacity:1;stroke:#dddddd;stroke-width:3.51292px;stroke-opacity:1"><path
       d="m 205.78836,15.400631 c -19.81289,0 -28.9465,11.943945 -28.9465,35.691318 0,25.29306 8.14999,37.518039 28.66547,37.518039 9.27412,0 20.51548,-1.967238 20.51548,-1.967238 l -0.42155,-13.068081 c 0,0 -10.25774,0.983619 -15.59739,0.983619 -13.48963,0 -21.18274,-7.13483 -21.18274,-23.013251 0,-15.316353 8.11466,-22.092706 21.04223,-22.092706 5.33964,0 15.59738,1.124136 15.59738,1.124136 l 0.56207,-13.068081 c 0,0 -10.67929,-2.107755 -20.23445,-2.107755 z"
       style="font-weight:800;-inkscape-font-specification:'TitilliumMaps26L Ultra-Bold';fill:#dddddd;fill-opacity:1;stroke:#dddddd;stroke-opacity:1"
       id="path33531"
       sodipodi:nodetypes="sssccsssccs" /></g></g></svg>
