<?xml version="1.0" encoding="UTF-8" standalone="no"?>
<!-- Generator: Adobe Illustrator 15.0.2, SVG Export Plug-In . SVG Version: 6.00 Build 0)  -->

<svg
   xmlns:dc="http://purl.org/dc/elements/1.1/"
   xmlns:cc="http://creativecommons.org/ns#"
   xmlns:rdf="http://www.w3.org/1999/02/22-rdf-syntax-ns#"
   xmlns:svg="http://www.w3.org/2000/svg"
   xmlns="http://www.w3.org/2000/svg"
   xmlns:sodipodi="http://sodipodi.sourceforge.net/DTD/sodipodi-0.dtd"
   xmlns:inkscape="http://www.inkscape.org/namespaces/inkscape"
   version="1.1"
   id="Layer_1"
   x="0px"
   y="0px"
   width="100"
   height="32.061897"
   viewBox="0 0 100 32.061897"
   enable-background="new 0 0 707 178"
   xml:space="preserve"
   sodipodi:docname="XTC-logo-rgb.svg"
   inkscape:version="0.92.5 (2060ec1f9f, 2020-04-08)"><metadata
   id="metadata838"><rdf:RDF><cc:Work
       rdf:about=""><dc:format>image/svg+xml</dc:format><dc:type
         rdf:resource="http://purl.org/dc/dcmitype/StillImage" /><dc:title></dc:title></cc:Work></rdf:RDF></metadata><defs
   id="defs836">
	
	
	

		
		
	</defs><sodipodi:namedview
   pagecolor="#ffffff"
   bordercolor="#666666"
   borderopacity="1"
   objecttolerance="10"
   gridtolerance="10"
   guidetolerance="10"
   inkscape:pageopacity="0"
   inkscape:pageshadow="2"
   inkscape:window-width="1310"
   inkscape:window-height="704"
   id="namedview834"
   showgrid="false"
   fit-margin-top="0"
   fit-margin-left="0"
   fit-margin-right="0"
   fit-margin-bottom="0"
   inkscape:zoom="5.4048162"
   inkscape:cx="-14.557551"
   inkscape:cy="2.4457484"
   inkscape:window-x="56"
   inkscape:window-y="27"
   inkscape:window-maximized="1"
   inkscape:current-layer="Layer_1" />

<g
   id="g824"
   transform="translate(-26.79799,-8.5919436)"><path
     style="fill:#585858;stroke-width:0.46163434"
     inkscape:connector-curvature="0"
     d="m 126.73982,39.757802 c 0,0 -7.04223,0.896037 -10.9675,0.896037 -11.3599,0 -14.48747,-5.250631 -14.48747,-16.028872 0,-11.676118 4.14963,-16.0330234 14.48747,-16.0330234 4.26689,0 11.02567,1.079764 11.02567,1.079764 l -0.22712,5.3877384 c 0,0 -7.15995,-0.538271 -9.66201,-0.538271 -5.39697,0 -7.55418,1.974413 -7.55418,10.103792 0,7.678368 1.64572,10.102869 7.78315,10.102869 2.27309,0 9.43304,-0.494874 9.43304,-0.494874 z"
     id="path7141" /><polygon
     transform="matrix(0.46163433,0,0,0.46163433,-107.57437,-101.26503)"
     style="fill:#585858"
     points="391.359,239.143 448.468,239.143 448.468,252.084 428.539,252.084 428.539,306.264 411.796,306.264 411.796,252.084 391.359,252.084 "
     id="polygon7145" /><g
     transform="matrix(0.46163433,0,0,0.46163433,-16.497309,-101.26503)"
     id="g7199"><polygon
       id="polygon7201"
       points="125.123,270.513 139.73,255.905 123.004,239.177 93.787,239.177 "
       style="fill:#e60000" /><path
       id="path7203"
       d="m 190.1,239.177 c 0,0 -5.084,0 -16.721,0 -8.289,0 -16.209,3.715 -22.875,10.381 -4.803,4.802 -56.637,56.635 -56.637,56.635 h 29.216 l 18.86,-18.861 18.861,18.861 h 29.215 L 156.55,272.725 Z"
       inkscape:connector-curvature="0"
       style="fill:#e60000" /></g></g></svg>