<?xml version="1.0" encoding="UTF-8" standalone="no"?>
<!-- Generator: Adobe Illustrator 15.0.2, SVG Export Plug-In . SVG Version: 6.00 Build 0)  -->

<svg
   version="1.1"
   id="Layer_1"
   x="0px"
   y="0px"
   width="229"
   height="65"
   viewBox="0 0 229 65"
   enable-background="new 0 0 707 178"
   xml:space="preserve"
   sodipodi:docname="xlt-logo-rgb-my.svg"
   inkscape:version="1.1.2 (0a00cf5339, 2022-02-04)"
   xmlns:inkscape="http://www.inkscape.org/namespaces/inkscape"
   xmlns:sodipodi="http://sodipodi.sourceforge.net/DTD/sodipodi-0.dtd"
   xmlns="http://www.w3.org/2000/svg"
   xmlns:svg="http://www.w3.org/2000/svg"><defs
   id="defs23" /><sodipodi:namedview
   id="namedview21"
   pagecolor="#ffffff"
   bordercolor="#666666"
   borderopacity="1.0"
   inkscape:pageshadow="2"
   inkscape:pageopacity="0.0"
   inkscape:pagecheckerboard="0"
   showgrid="false"
   inkscape:zoom="7.240336"
   inkscape:cx="112.42572"
   inkscape:cy="32.526115"
   inkscape:window-width="2560"
   inkscape:window-height="1375"
   inkscape:window-x="0"
   inkscape:window-y="0"
   inkscape:window-maximized="1"
   inkscape:current-layer="Layer_1"
   showborder="true"
   inkscape:showpageshadow="false"
   width="706px" />

<g
   id="g18"
   transform="translate(-239.07518,-42.409925)"><g
     id="g4"><path
       fill="#585858"
       d="m 451.7,107.135 c -2.991,0 -5.392,-2.4 -5.392,-5.41 0,-3.006 2.398,-5.408 5.423,-5.408 2.945,0 5.394,2.401 5.394,5.305 0,3.142 -2.324,5.513 -5.425,5.513 z m 0.017,-10.117 c -2.588,0 -4.664,2.104 -4.664,4.723 0,2.617 2.062,4.693 4.664,4.693 2.545,0 4.679,-2.105 4.679,-4.605 0,-2.735 -2.017,-4.811 -4.679,-4.811 z m 1.153,7.998 -1.389,-2.762 h -0.788 v 2.762 h -1.01 v -6.58 h 1.901 c 1.606,0 2.323,0.571 2.323,1.887 0,1.01 -0.438,1.578 -1.403,1.842 l 1.491,2.852 h -1.125 z m -1.431,-5.688 h -0.732 v 2.033 h 0.835 c 0.938,0 1.346,-0.309 1.346,-1.024 0,-0.715 -0.425,-1.009 -1.449,-1.009 z"
       id="path2" /></g><g
     id="g10"><path
       fill="#585858"
       d="M 344.116,107.135 V 42.7 h 20.154 v 47.485 h 36.369 v 16.949 h -56.523 z"
       id="path6" /><path
       fill="#585858"
       d="m 394.325,42.7 h 73.021 v 16.947 h -26.289 v 47.488 h -20.15 V 59.647 h -26.582 z"
       id="path8" /></g><g
     id="g16"><polygon
       fill="#e60000"
       points="267.768,42.7 239.652,42.7 269.807,72.856 283.865,58.797 "
       id="polygon12" /><path
       fill="#e60000"
       d="m 332.34,42.7 c 0,0 -4.894,0 -16.093,0 -7.977,0 -15.598,3.574 -22.014,9.99 -4.621,4.621 -54.508,54.503 -54.508,54.503 h 28.117 l 18.152,-18.15 18.149,18.15 h 28.115 L 300.051,74.985 Z"
       id="path14" /></g></g></svg>
