<?xml version="1.0" encoding="UTF-8" standalone="no"?>
<!-- Generator: Adobe Illustrator 23.0.3, SVG Export Plug-In . SVG Version: 6.00 Build 0)  -->

<svg
   xmlns:dc="http://purl.org/dc/elements/1.1/"
   xmlns:cc="http://creativecommons.org/ns#"
   xmlns:rdf="http://www.w3.org/1999/02/22-rdf-syntax-ns#"
   xmlns:svg="http://www.w3.org/2000/svg"
   xmlns="http://www.w3.org/2000/svg"
   xmlns:sodipodi="http://sodipodi.sourceforge.net/DTD/sodipodi-0.dtd"
   xmlns:inkscape="http://www.inkscape.org/namespaces/inkscape"
   version="1.1"
   id="Layer_1"
   x="0px"
   y="0px"
   viewBox="0 0 500 500"
   style="enable-background:new 0 0 500 500;"
   xml:space="preserve"
   sodipodi:docname="logo.svg"
   inkscape:version="0.92.5 (2060ec1f9f, 2020-04-08)"><metadata
   id="metadata145"><rdf:RDF><cc:Work
       rdf:about=""><dc:format>image/svg+xml</dc:format><dc:type
         rdf:resource="http://purl.org/dc/dcmitype/StillImage" /></cc:Work></rdf:RDF></metadata><defs
   id="defs143">
	
	
	
	
	
	
</defs><sodipodi:namedview
   pagecolor="#ffffff"
   bordercolor="#666666"
   borderopacity="1"
   objecttolerance="10"
   gridtolerance="10"
   guidetolerance="10"
   inkscape:pageopacity="0"
   inkscape:pageshadow="2"
   inkscape:window-width="1310"
   inkscape:window-height="704"
   id="namedview141"
   showgrid="false"
   inkscape:zoom="0.472"
   inkscape:cx="13.771186"
   inkscape:cy="250"
   inkscape:window-x="56"
   inkscape:window-y="27"
   inkscape:window-maximized="1"
   inkscape:current-layer="Layer_1" />

<g
   id="g1157"><path
     style="fill:#ffffff"
     d="m 116.8525,421.9722 c -5.7041,0 -10.3442,-4.3127 -10.3442,-9.6129 V 88.183 c 0,-5.3002 4.6401,-9.6117 10.3442,-9.6117 H 320.858 c 3.0347,0 9.3959,0.5498 11.7506,2.6302 l 0.3545,0.3442 58.905,63.2912 c 2.3101,2.491 2.9202,8.4928 2.9202,11.3184 v 256.2039 c 0,5.3002 -4.6407,9.6129 -10.3436,9.6129 H 116.8525 Z"
     id="path2"
     inkscape:connector-curvature="0" /><g
     id="g10">
		<g
   id="g8">
			<g
   id="g6">
				<path
   style="fill:#767676"
   d="M 384.4445,423.2066 H 116.852 c -6.3839,0 -11.5786,-4.8658 -11.5786,-10.8474 V 88.1831 c 0,-5.9804 5.1947,-10.8461 11.5786,-10.8461 h 204.0062 c 0.377,0 9.2786,0.0329 12.568,2.9389 l 0.3947,0.3833 58.9508,63.337 c 3.2135,3.4652 3.2514,11.7924 3.2514,12.1593 v 256.2036 c 0,5.9817 -5.1947,10.8475 -11.5786,10.8475 z M 116.5079,411.9189 c 0.0848,0.0278 0.1999,0.0531 0.3441,0.0531 h 267.5925 c 0.1442,0 0.2581,-0.0253 0.3441,-0.0531 V 156.1556 c -0.008,-0.9033 -0.3593,-3.7347 -0.7034,-5.0037 L 326.4325,89.2103 c -1.4651,-0.3176 -4.4533,-0.6389 -5.5742,-0.6389 H 116.852 c -0.143,0 -0.2594,0.024 -0.3441,0.0531 z M 383.9612,150.7699 Z M 327.0321,89.371 v 0.0013 z"
   id="path4"
   inkscape:connector-curvature="0" />
			</g>
		</g>
	</g><g
     style="fill:#ff0000;fill-opacity:1"
     transform="matrix(1.7664906,0,0,1.7664906,-0.09361038,-231.42369)"
     id="g7199"><polygon
       id="polygon7201"
       points="123.004,239.177 93.787,239.177 125.123,270.513 139.73,255.905 "
       style="fill:#ff0000;fill-opacity:1" /><path
       id="path7203"
       d="m 190.1,239.177 c 0,0 -5.084,0 -16.721,0 -8.289,0 -16.209,3.715 -22.875,10.381 -4.803,4.802 -56.637,56.635 -56.637,56.635 h 29.216 l 18.86,-18.861 18.861,18.861 h 29.215 L 156.55,272.725 Z"
       inkscape:connector-curvature="0"
       style="fill:#ff0000;fill-opacity:1" /></g></g></svg>